<svg xmlns="http://www.w3.org/2000/svg" xmlns:xlink="http://www.w3.org/1999/xlink" width="500" zoomAndPan="magnify" viewBox="0 0 375 374.999991" height="500" preserveAspectRatio="xMidYMid meet" version="1.0"><defs><g/></defs><g fill="#ff00ff" fill-opacity="1"><g transform="translate(40.64482, 237.084066)"><g><path d="M 24.59375 -66.421875 L 40.78125 -30.296875 L 56.96875 -66.421875 L 84.15625 -66.421875 L 48.546875 0 L 33.015625 0 L -2.59375 -66.421875 Z M 24.59375 -66.421875 "/></g></g></g><g fill="#ff00ff" fill-opacity="1"><g transform="translate(107.320126, 237.084066)"><g><path d="M 11.65625 -66.421875 L 11.65625 -91.140625 L 34.5625 -91.140625 L 34.5625 -66.421875 L 48.546875 -66.421875 L 48.546875 -48.9375 L 34.5625 -48.9375 L 34.5625 -27.828125 C 34.5625 -21.703125 36.289062 -18.640625 39.75 -18.640625 C 40.613281 -18.640625 41.519531 -18.8125 42.46875 -19.15625 C 43.414062 -19.5 44.148438 -19.847656 44.671875 -20.203125 L 45.4375 -20.71875 L 51.140625 -2.203125 C 46.222656 0.554688 40.613281 1.9375 34.3125 1.9375 C 29.988281 1.9375 26.273438 1.179688 23.171875 -0.328125 C 20.066406 -1.835938 17.710938 -3.863281 16.109375 -6.40625 C 14.515625 -8.957031 13.375 -11.632812 12.6875 -14.4375 C 12 -17.238281 11.65625 -20.238281 11.65625 -23.4375 L 11.65625 -48.9375 L 2.078125 -48.9375 L 2.078125 -66.421875 Z M 11.65625 -66.421875 "/></g></g></g><g fill="#ff00ff" fill-opacity="1"><g transform="translate(143.570274, 237.084066)"><g><path d="M 74.96875 -30.03125 L 26.796875 -30.03125 C 26.796875 -25.375 28.304688 -21.921875 31.328125 -19.671875 C 34.347656 -17.429688 37.628906 -16.3125 41.171875 -16.3125 C 44.878906 -16.3125 47.8125 -16.804688 49.96875 -17.796875 C 52.132812 -18.796875 54.597656 -20.757812 57.359375 -23.6875 L 73.921875 -15.40625 C 67.015625 -3.84375 55.535156 1.9375 39.484375 1.9375 C 29.472656 1.9375 20.882812 -1.488281 13.71875 -8.34375 C 6.5625 -15.207031 2.984375 -23.472656 2.984375 -33.140625 C 2.984375 -42.804688 6.5625 -51.09375 13.71875 -58 C 20.882812 -64.90625 29.472656 -68.359375 39.484375 -68.359375 C 50.015625 -68.359375 58.582031 -65.316406 65.1875 -59.234375 C 71.789062 -53.148438 75.09375 -44.453125 75.09375 -33.140625 C 75.09375 -31.585938 75.050781 -30.550781 74.96875 -30.03125 Z M 27.453125 -42.71875 L 52.6875 -42.71875 C 52.175781 -46.175781 50.816406 -48.832031 48.609375 -50.6875 C 46.410156 -52.539062 43.585938 -53.46875 40.140625 -53.46875 C 36.335938 -53.46875 33.3125 -52.472656 31.0625 -50.484375 C 28.820312 -48.503906 27.617188 -45.914062 27.453125 -42.71875 Z M 27.453125 -42.71875 "/></g></g></g><g fill="#ff00ff" fill-opacity="1"><g transform="translate(206.749919, 237.084066)"><g><path d="M 83.640625 -66.421875 L 52.046875 -34.703125 L 86.75 0 L 57.21875 0 L 30.6875 -26.546875 L 30.6875 0 L 7.765625 0 L 7.765625 -111.34375 L 30.6875 -111.34375 L 30.6875 -43.25 L 53.859375 -66.421875 Z M 83.640625 -66.421875 "/></g></g></g><g fill="#ff00ff" fill-opacity="1"><g transform="translate(275.496726, 237.084066)"><g><path d="M 36.640625 -68.359375 C 40.441406 -68.359375 44.195312 -67.925781 47.90625 -67.0625 C 51.613281 -66.195312 54.375 -65.332031 56.1875 -64.46875 L 58.90625 -63.1875 L 51.40625 -48.15625 C 46.21875 -50.925781 41.296875 -52.3125 36.640625 -52.3125 C 34.046875 -52.3125 32.207031 -52.03125 31.125 -51.46875 C 30.050781 -50.90625 29.515625 -49.847656 29.515625 -48.296875 C 29.515625 -47.953125 29.554688 -47.601562 29.640625 -47.25 C 29.734375 -46.90625 29.90625 -46.582031 30.15625 -46.28125 C 30.414062 -45.976562 30.65625 -45.71875 30.875 -45.5 C 31.09375 -45.289062 31.457031 -45.054688 31.96875 -44.796875 C 32.488281 -44.535156 32.898438 -44.335938 33.203125 -44.203125 C 33.503906 -44.078125 34 -43.882812 34.6875 -43.625 C 35.382812 -43.375 35.90625 -43.179688 36.25 -43.046875 C 36.59375 -42.921875 37.175781 -42.726562 38 -42.46875 C 38.820312 -42.207031 39.445312 -42.035156 39.875 -41.953125 C 42.550781 -41.171875 44.878906 -40.304688 46.859375 -39.359375 C 48.847656 -38.410156 50.941406 -37.113281 53.140625 -35.46875 C 55.347656 -33.832031 57.054688 -31.757812 58.265625 -29.25 C 59.472656 -26.75 60.078125 -23.90625 60.078125 -20.71875 C 60.078125 -5.613281 49.585938 1.9375 28.609375 1.9375 C 23.859375 1.9375 19.347656 1.207031 15.078125 -0.25 C 10.804688 -1.71875 7.722656 -3.1875 5.828125 -4.65625 L 2.984375 -6.984375 L 12.296875 -22.65625 C 12.984375 -22.050781 13.890625 -21.335938 15.015625 -20.515625 C 16.140625 -19.703125 18.164062 -18.582031 21.09375 -17.15625 C 24.03125 -15.726562 26.578125 -15.015625 28.734375 -15.015625 C 33.484375 -15.015625 35.859375 -16.613281 35.859375 -19.8125 C 35.859375 -21.28125 35.253906 -22.421875 34.046875 -23.234375 C 32.835938 -24.054688 30.785156 -24.984375 27.890625 -26.015625 C 25.003906 -27.054688 22.742188 -28.007812 21.109375 -28.875 C 16.960938 -31.03125 13.679688 -33.46875 11.265625 -36.1875 C 8.847656 -38.90625 7.640625 -42.507812 7.640625 -47 C 7.640625 -53.726562 10.25 -58.96875 15.46875 -62.71875 C 20.6875 -66.476562 27.742188 -68.359375 36.640625 -68.359375 Z M 36.640625 -68.359375 "/></g></g></g><g fill="#00ffff" fill-opacity="1"><g transform="translate(35.789376, 237.084066)"><g><path d="M 24.59375 -66.421875 L 40.78125 -30.296875 L 56.96875 -66.421875 L 84.15625 -66.421875 L 48.546875 0 L 33.015625 0 L -2.59375 -66.421875 Z M 24.59375 -66.421875 "/></g></g></g><g fill="#00ffff" fill-opacity="1"><g transform="translate(102.464682, 237.084066)"><g><path d="M 11.65625 -66.421875 L 11.65625 -91.140625 L 34.5625 -91.140625 L 34.5625 -66.421875 L 48.546875 -66.421875 L 48.546875 -48.9375 L 34.5625 -48.9375 L 34.5625 -27.828125 C 34.5625 -21.703125 36.289062 -18.640625 39.75 -18.640625 C 40.613281 -18.640625 41.519531 -18.8125 42.46875 -19.15625 C 43.414062 -19.5 44.148438 -19.847656 44.671875 -20.203125 L 45.4375 -20.71875 L 51.140625 -2.203125 C 46.222656 0.554688 40.613281 1.9375 34.3125 1.9375 C 29.988281 1.9375 26.273438 1.179688 23.171875 -0.328125 C 20.066406 -1.835938 17.710938 -3.863281 16.109375 -6.40625 C 14.515625 -8.957031 13.375 -11.632812 12.6875 -14.4375 C 12 -17.238281 11.65625 -20.238281 11.65625 -23.4375 L 11.65625 -48.9375 L 2.078125 -48.9375 L 2.078125 -66.421875 Z M 11.65625 -66.421875 "/></g></g></g><g fill="#00ffff" fill-opacity="1"><g transform="translate(138.71483, 237.084066)"><g><path d="M 74.96875 -30.03125 L 26.796875 -30.03125 C 26.796875 -25.375 28.304688 -21.921875 31.328125 -19.671875 C 34.347656 -17.429688 37.628906 -16.3125 41.171875 -16.3125 C 44.878906 -16.3125 47.8125 -16.804688 49.96875 -17.796875 C 52.132812 -18.796875 54.597656 -20.757812 57.359375 -23.6875 L 73.921875 -15.40625 C 67.015625 -3.84375 55.535156 1.9375 39.484375 1.9375 C 29.472656 1.9375 20.882812 -1.488281 13.71875 -8.34375 C 6.5625 -15.207031 2.984375 -23.472656 2.984375 -33.140625 C 2.984375 -42.804688 6.5625 -51.09375 13.71875 -58 C 20.882812 -64.90625 29.472656 -68.359375 39.484375 -68.359375 C 50.015625 -68.359375 58.582031 -65.316406 65.1875 -59.234375 C 71.789062 -53.148438 75.09375 -44.453125 75.09375 -33.140625 C 75.09375 -31.585938 75.050781 -30.550781 74.96875 -30.03125 Z M 27.453125 -42.71875 L 52.6875 -42.71875 C 52.175781 -46.175781 50.816406 -48.832031 48.609375 -50.6875 C 46.410156 -52.539062 43.585938 -53.46875 40.140625 -53.46875 C 36.335938 -53.46875 33.3125 -52.472656 31.0625 -50.484375 C 28.820312 -48.503906 27.617188 -45.914062 27.453125 -42.71875 Z M 27.453125 -42.71875 "/></g></g></g><g fill="#00ffff" fill-opacity="1"><g transform="translate(201.894475, 237.084066)"><g><path d="M 83.640625 -66.421875 L 52.046875 -34.703125 L 86.75 0 L 57.21875 0 L 30.6875 -26.546875 L 30.6875 0 L 7.765625 0 L 7.765625 -111.34375 L 30.6875 -111.34375 L 30.6875 -43.25 L 53.859375 -66.421875 Z M 83.640625 -66.421875 "/></g></g></g><g fill="#00ffff" fill-opacity="1"><g transform="translate(270.641282, 237.084066)"><g><path d="M 36.640625 -68.359375 C 40.441406 -68.359375 44.195312 -67.925781 47.90625 -67.0625 C 51.613281 -66.195312 54.375 -65.332031 56.1875 -64.46875 L 58.90625 -63.1875 L 51.40625 -48.15625 C 46.21875 -50.925781 41.296875 -52.3125 36.640625 -52.3125 C 34.046875 -52.3125 32.207031 -52.03125 31.125 -51.46875 C 30.050781 -50.90625 29.515625 -49.847656 29.515625 -48.296875 C 29.515625 -47.953125 29.554688 -47.601562 29.640625 -47.25 C 29.734375 -46.90625 29.90625 -46.582031 30.15625 -46.28125 C 30.414062 -45.976562 30.65625 -45.71875 30.875 -45.5 C 31.09375 -45.289062 31.457031 -45.054688 31.96875 -44.796875 C 32.488281 -44.535156 32.898438 -44.335938 33.203125 -44.203125 C 33.503906 -44.078125 34 -43.882812 34.6875 -43.625 C 35.382812 -43.375 35.90625 -43.179688 36.25 -43.046875 C 36.59375 -42.921875 37.175781 -42.726562 38 -42.46875 C 38.820312 -42.207031 39.445312 -42.035156 39.875 -41.953125 C 42.550781 -41.171875 44.878906 -40.304688 46.859375 -39.359375 C 48.847656 -38.410156 50.941406 -37.113281 53.140625 -35.46875 C 55.347656 -33.832031 57.054688 -31.757812 58.265625 -29.25 C 59.472656 -26.75 60.078125 -23.90625 60.078125 -20.71875 C 60.078125 -5.613281 49.585938 1.9375 28.609375 1.9375 C 23.859375 1.9375 19.347656 1.207031 15.078125 -0.25 C 10.804688 -1.71875 7.722656 -3.1875 5.828125 -4.65625 L 2.984375 -6.984375 L 12.296875 -22.65625 C 12.984375 -22.050781 13.890625 -21.335938 15.015625 -20.515625 C 16.140625 -19.703125 18.164062 -18.582031 21.09375 -17.15625 C 24.03125 -15.726562 26.578125 -15.015625 28.734375 -15.015625 C 33.484375 -15.015625 35.859375 -16.613281 35.859375 -19.8125 C 35.859375 -21.28125 35.253906 -22.421875 34.046875 -23.234375 C 32.835938 -24.054688 30.785156 -24.984375 27.890625 -26.015625 C 25.003906 -27.054688 22.742188 -28.007812 21.109375 -28.875 C 16.960938 -31.03125 13.679688 -33.46875 11.265625 -36.1875 C 8.847656 -38.90625 7.640625 -42.507812 7.640625 -47 C 7.640625 -53.726562 10.25 -58.96875 15.46875 -62.71875 C 20.6875 -66.476562 27.742188 -68.359375 36.640625 -68.359375 Z M 36.640625 -68.359375 "/></g></g></g><g fill="#000000" fill-opacity="1"><g transform="translate(38.217098, 237.084066)"><g><path d="M 24.59375 -66.421875 L 40.78125 -30.296875 L 56.96875 -66.421875 L 84.15625 -66.421875 L 48.546875 0 L 33.015625 0 L -2.59375 -66.421875 Z M 24.59375 -66.421875 "/></g></g></g><g fill="#000000" fill-opacity="1"><g transform="translate(104.892404, 237.084066)"><g><path d="M 11.65625 -66.421875 L 11.65625 -91.140625 L 34.5625 -91.140625 L 34.5625 -66.421875 L 48.546875 -66.421875 L 48.546875 -48.9375 L 34.5625 -48.9375 L 34.5625 -27.828125 C 34.5625 -21.703125 36.289062 -18.640625 39.75 -18.640625 C 40.613281 -18.640625 41.519531 -18.8125 42.46875 -19.15625 C 43.414062 -19.5 44.148438 -19.847656 44.671875 -20.203125 L 45.4375 -20.71875 L 51.140625 -2.203125 C 46.222656 0.554688 40.613281 1.9375 34.3125 1.9375 C 29.988281 1.9375 26.273438 1.179688 23.171875 -0.328125 C 20.066406 -1.835938 17.710938 -3.863281 16.109375 -6.40625 C 14.515625 -8.957031 13.375 -11.632812 12.6875 -14.4375 C 12 -17.238281 11.65625 -20.238281 11.65625 -23.4375 L 11.65625 -48.9375 L 2.078125 -48.9375 L 2.078125 -66.421875 Z M 11.65625 -66.421875 "/></g></g></g><g fill="#000000" fill-opacity="1"><g transform="translate(141.142552, 237.084066)"><g><path d="M 74.96875 -30.03125 L 26.796875 -30.03125 C 26.796875 -25.375 28.304688 -21.921875 31.328125 -19.671875 C 34.347656 -17.429688 37.628906 -16.3125 41.171875 -16.3125 C 44.878906 -16.3125 47.8125 -16.804688 49.96875 -17.796875 C 52.132812 -18.796875 54.597656 -20.757812 57.359375 -23.6875 L 73.921875 -15.40625 C 67.015625 -3.84375 55.535156 1.9375 39.484375 1.9375 C 29.472656 1.9375 20.882812 -1.488281 13.71875 -8.34375 C 6.5625 -15.207031 2.984375 -23.472656 2.984375 -33.140625 C 2.984375 -42.804688 6.5625 -51.09375 13.71875 -58 C 20.882812 -64.90625 29.472656 -68.359375 39.484375 -68.359375 C 50.015625 -68.359375 58.582031 -65.316406 65.1875 -59.234375 C 71.789062 -53.148438 75.09375 -44.453125 75.09375 -33.140625 C 75.09375 -31.585938 75.050781 -30.550781 74.96875 -30.03125 Z M 27.453125 -42.71875 L 52.6875 -42.71875 C 52.175781 -46.175781 50.816406 -48.832031 48.609375 -50.6875 C 46.410156 -52.539062 43.585938 -53.46875 40.140625 -53.46875 C 36.335938 -53.46875 33.3125 -52.472656 31.0625 -50.484375 C 28.820312 -48.503906 27.617188 -45.914062 27.453125 -42.71875 Z M 27.453125 -42.71875 "/></g></g></g><g fill="#000000" fill-opacity="1"><g transform="translate(204.322197, 237.084066)"><g><path d="M 83.640625 -66.421875 L 52.046875 -34.703125 L 86.75 0 L 57.21875 0 L 30.6875 -26.546875 L 30.6875 0 L 7.765625 0 L 7.765625 -111.34375 L 30.6875 -111.34375 L 30.6875 -43.25 L 53.859375 -66.421875 Z M 83.640625 -66.421875 "/></g></g></g><g fill="#000000" fill-opacity="1"><g transform="translate(273.069004, 237.084066)"><g><path d="M 36.640625 -68.359375 C 40.441406 -68.359375 44.195312 -67.925781 47.90625 -67.0625 C 51.613281 -66.195312 54.375 -65.332031 56.1875 -64.46875 L 58.90625 -63.1875 L 51.40625 -48.15625 C 46.21875 -50.925781 41.296875 -52.3125 36.640625 -52.3125 C 34.046875 -52.3125 32.207031 -52.03125 31.125 -51.46875 C 30.050781 -50.90625 29.515625 -49.847656 29.515625 -48.296875 C 29.515625 -47.953125 29.554688 -47.601562 29.640625 -47.25 C 29.734375 -46.90625 29.90625 -46.582031 30.15625 -46.28125 C 30.414062 -45.976562 30.65625 -45.71875 30.875 -45.5 C 31.09375 -45.289062 31.457031 -45.054688 31.96875 -44.796875 C 32.488281 -44.535156 32.898438 -44.335938 33.203125 -44.203125 C 33.503906 -44.078125 34 -43.882812 34.6875 -43.625 C 35.382812 -43.375 35.90625 -43.179688 36.25 -43.046875 C 36.59375 -42.921875 37.175781 -42.726562 38 -42.46875 C 38.820312 -42.207031 39.445312 -42.035156 39.875 -41.953125 C 42.550781 -41.171875 44.878906 -40.304688 46.859375 -39.359375 C 48.847656 -38.410156 50.941406 -37.113281 53.140625 -35.46875 C 55.347656 -33.832031 57.054688 -31.757812 58.265625 -29.25 C 59.472656 -26.75 60.078125 -23.90625 60.078125 -20.71875 C 60.078125 -5.613281 49.585938 1.9375 28.609375 1.9375 C 23.859375 1.9375 19.347656 1.207031 15.078125 -0.25 C 10.804688 -1.71875 7.722656 -3.1875 5.828125 -4.65625 L 2.984375 -6.984375 L 12.296875 -22.65625 C 12.984375 -22.050781 13.890625 -21.335938 15.015625 -20.515625 C 16.140625 -19.703125 18.164062 -18.582031 21.09375 -17.15625 C 24.03125 -15.726562 26.578125 -15.015625 28.734375 -15.015625 C 33.484375 -15.015625 35.859375 -16.613281 35.859375 -19.8125 C 35.859375 -21.28125 35.253906 -22.421875 34.046875 -23.234375 C 32.835938 -24.054688 30.785156 -24.984375 27.890625 -26.015625 C 25.003906 -27.054688 22.742188 -28.007812 21.109375 -28.875 C 16.960938 -31.03125 13.679688 -33.46875 11.265625 -36.1875 C 8.847656 -38.90625 7.640625 -42.507812 7.640625 -47 C 7.640625 -53.726562 10.25 -58.96875 15.46875 -62.71875 C 20.6875 -66.476562 27.742188 -68.359375 36.640625 -68.359375 Z M 36.640625 -68.359375 "/></g></g></g></svg>